# xmcd CD database file
#
# Track frame offsets:
#	183
#	6558
#	14333
#	29143
#	39708
#	49283
#	58958
#	73808
#	89358
#	100533
#	109083
#	117208
#	128333
#	136693
#	151233
#	163860
#	179270
#	187410
#	196533
#	216225
#	222123
#	231140
#	243683
#	253758
#	265008
#	274408
#
# Disc length: 3748 seconds
#
# Revision: 0
# Processed by: cddbd v1.5PL3 Copyright (c) Steve Scherf et al.
# Submitted via: CDex 1.51
#
DISCID=840ea21a
DTITLE=Pian and Forte - Antonio Frigé, Organ - John Stanley--Six Organ Concertos Op.2
DYEAR=1991
DGENRE=Organ and Orchestra
TTITLE0=Concerto No.1 in D Major  I.Largo
TTITLE1=Concerto No.1 in D Major  II.Allegro
TTITLE2=Concerto No.1 in D Major  III.Allegro
TTITLE3=Concerto No.1 in D Major  IV.Adagio
TTITLE4=Concerto No.1 in D Major  V.Allegro
TTITLE5=Concerto No.2 in B Minor  I.Largo-Adagio
TTITLE6=Concerto No.2 in B Minor  II.Allegro
TTITLE7=Concerto No.2 in B Minor  III.Adagio-Allegro..
TTITLE8=Concerto No.2 in B Minor  IV.Allegro
TTITLE9=Concerto No.2 in B Minor  V.Allegro
TTITLE10=Concerto No.3 in G Major  I.Adagio
TTITLE11=Concerto No.3 in G Major  II.Allegro
TTITLE12=Concerto No.3 in G Major  III.Andante
TTITLE13=Concerto No.3 in G Major  IV.Allegro
TTITLE14=Concerto No.4 in D Minor  I.Adagio
TTITLE15=Concerto No.4 in D Minor  II.Allegro
TTITLE16=Concerto No.4 in D Minor  III.Andante
TTITLE17=Concerto No.4 in D Minor  IV.Allegro
TTITLE18=Concerto No.5 in A Minor  I.Adagio-Allegro
TTITLE19=Concerto No.5 in A Minor  II.Adagio
TTITLE20=Concerto No.5 in A Minor  III.Allegro
TTITLE21=Concerto No.5 in A Minor  IV.Allegro
TTITLE22=Concerto No.6 in B-flat Major  I.Adagio
TTITLE23=Concerto No.6 in B-flat Major  II.Allegro
TTITLE24=Concerto No.6 in B-flat Major  III.Largo
TTITLE25=Concerto No.6 in B-flat Major  IV.Allegro
EXTD=YEAR: 1991
EXTT0=
EXTT1=
EXTT2=
EXTT3=
EXTT4=
EXTT5=
EXTT6=
EXTT7=
EXTT8=
EXTT9=
EXTT10=
EXTT11=
EXTT12=
EXTT13=
EXTT14=
EXTT15=
EXTT16=
EXTT17=
EXTT18=
EXTT19=
EXTT20=
EXTT21=
EXTT22=
EXTT23=
EXTT24=
EXTT25=
PLAYORDER=
